<svg class="logo logo--dark" width="168" height="32" fill="none" xmlns="http://www.w3.org/2000/svg"><path d="M53.344 5.958h3.37V24.8h-3.37V5.958Zm6.987.328h3.37v3.219h-3.37V6.286Zm0 5.578h3.37V24.8h-3.37V11.864ZM75.75 23.32h-.053c-1.179 1.427-2.358 1.782-3.794 1.782-4.044 0-5.498-3.263-5.498-6.81 0-3.564 1.454-6.73 5.498-6.73 1.906 0 3.138.807 3.945 2.137h.053v-1.835h3.219v18.212h-3.37V23.32Zm-5.825-5.028c0 1.782.63 4.194 2.838 4.194 2.234 0 2.961-2.358 2.961-4.194 0-1.809-.851-4.123-3.015-4.123-2.18.009-2.784 2.394-2.784 4.123ZM94.468 24.8h-3.192v-1.756h-.053c-1.028 1.26-2.483 2.058-4.247 2.058-3.068 0-4.398-2.164-4.398-5.072v-8.167h3.37v6.908c0 1.578.026 3.715 2.18 3.715 2.439 0 2.962-2.634 2.962-4.292v-6.33h3.37V24.8h.008Zm3.538-18.514h3.369v3.219h-3.369V6.286Zm0 5.578h3.369V24.8h-3.369V11.864Zm6.907 0h3.219v1.835h.053c.754-1.259 2.031-2.137 4.017-2.137 3.972 0 5.426 3.166 5.426 6.73 0 3.538-1.454 6.81-5.497 6.81-1.428 0-2.616-.355-3.795-1.782h-.053v6.756h-3.37V11.864Zm3.396 6.428c0 1.836.727 4.194 2.962 4.194 2.207 0 2.837-2.412 2.837-4.194 0-1.729-.603-4.123-2.784-4.123-2.164.009-3.015 2.314-3.015 4.123Zm22.327 5.781c-1.233.674-2.634 1.029-4.443 1.029-4.273 0-6.756-2.465-6.756-6.703 0-3.742 1.986-6.837 6.003-6.837 4.797 0 6.153 3.29 6.153 7.812h-8.937c.15 2.084 1.604 3.263 3.688 3.263 1.632 0 3.041-.603 4.292-1.304v2.74Zm-2.261-7.013c-.098-1.632-.852-3.042-2.74-3.042-1.88 0-2.838 1.304-2.988 3.042h5.728Zm14.47 6.286h-.053c-1.002 1.259-2.385 1.756-3.972 1.756-3.973 0-5.427-3.263-5.427-6.81 0-3.565 1.454-6.73 5.427-6.73 1.684 0 2.864.576 3.865 1.809h.054V5.958h3.369V24.8h-3.263v-1.454Zm-3.086-.86c2.235 0 2.962-2.359 2.962-4.194 0-1.809-.851-4.123-3.015-4.123-2.181 0-2.784 2.385-2.784 4.123 0 1.782.621 4.194 2.837 4.194Zm9.896-16.2h3.369v3.219h-3.369V6.286Zm0 5.578h3.369V24.8h-3.369V11.864Zm7.483.682c1.304-.602 3.068-.975 4.496-.975 3.945 0 5.577 1.632 5.577 5.453v1.658c0 1.304.026 2.288.053 3.237.027.975.071 1.88.151 2.89h-2.962c-.124-.674-.124-1.534-.15-1.933h-.054c-.78 1.428-2.465 2.235-3.99 2.235-2.287 0-4.522-1.384-4.522-3.84 0-1.933.931-3.068 2.208-3.688 1.277-.63 2.935-.754 4.345-.754h1.862c0-2.084-.931-2.784-2.917-2.784-1.428 0-2.864.55-3.99 1.41l-.107-2.909Zm3.946 10.09c1.028 0 1.835-.451 2.359-1.152.549-.727.7-1.658.7-2.66h-1.454c-1.508 0-3.742.248-3.742 2.234 0 1.109.931 1.579 2.137 1.579v-.001ZM33.722 0h-.07c-.4.044-8.468.798-9.692 1.188-.54.169-1.4.639-1.029 1.915.125.426.657 1.348 1.136 2.173.07.124.133.23.168.292.949 1.667.647 2.855.275 3.707-.745 1.71-2.368 2.323-3.644 2.323-.754 0-1.499-.204-2.084-.568-1.827-1.144-2.474-2.73-1.986-4.85.248-1.144.346-1.968.292-2.527-.044-.426-.248-.754-.585-.958-.257-.15-.585-.23-.993-.23-.807 0-1.667.31-1.764.346L7.45001 4.903a.81993.81993 0 0 0-.487.4.80796.80796 0 0 0-.027.629l1.676 5.027c.381 1.135.275 1.623.124 1.836-.124.177-.381.266-.745.266-.089 0-.177-.01-.284-.018l-1.037-.106-2.013-.204a5.24977 5.24977 0 0 0-.372-.018c-1.109 0-2.208.514-3.024 1.41-.904 1.01-1.365 2.411-1.241 3.839.186 2.013 1.25 3.157 2.101 3.76 1.011.718 2.155.984 2.82.992h.08c.957 0 1.96-.283 3.156-.895 1.224-.63 1.72-.727 1.90699-.727h.035c.683.07.665 1.516.665 1.525v.018l.106 8.574v.035c.071.559.462.754.78.754h.072c.399-.035 8.467-.798 9.682-1.18.541-.168 1.401-.638 1.029-1.915-.124-.425-.656-1.347-1.135-2.172l-.169-.292c-.948-1.667-.647-2.855-.274-3.707.744-1.711 2.367-2.323 3.644-2.323.753 0 1.498.204 2.083.568 1.827 1.143 2.474 2.73 1.986 4.85-.248 1.144-.345 1.968-.292 2.527.044.425.248.753.585.957.257.151.585.23.993.23.807 0 1.667-.31 1.765-.345l6.295-2.092a.8182.8182 0 0 0 .284-.1512.81872.81872 0 0 0 .204-.2488.80877.80877 0 0 0 .0768-.3119.8068.8068 0 0 0-.0508-.3171l-1.675-5.027c-.382-1.135-.275-1.623-.125-1.836.124-.177.382-.266.745-.266.089 0 .178.01.284.018l1.037.106 2.013.204c.124.01.248.018.373.018 1.108 0 2.207-.514 3.023-1.41.931-1.02 1.392-2.43 1.26-3.857-.187-2.013-1.251-3.156-2.102-3.76-1.011-.718-2.155-.984-2.82-.992h-.08c-.957 0-1.96.283-3.156.895-1.224.63-1.72.727-1.907.727h-.035c-.683-.07-.665-1.516-.665-1.525v-.018L34.503.798V.763C34.432.195 34.04 0 33.723 0h-.001Z" fill="#fff"/><path d="M28.96 25.926c-.035.187-.079.364-.114.55.771.009 1.95-.275 1.95-.275l-1.702-2.163c.07.62.009 1.259-.133 1.888h-.001Z" fill="#042B4C"/><path d="M22.107 29.03c-.15-.506-1.055-1.995-1.277-2.386-1.02-1.8-.683-3.138-.292-4.043.141-.328.31-.611.505-.877-.718-2.324-.408-4.842-.408-4.842.124 1.818.949 3.175 1.463 3.866 1.445-.922 3.37-.895 4.7-.062 1.418.896 2.083 1.995 2.26 3.166l3.396 1.454 2.004-2.97-5.533-8.353c-.408-1.046-.248-2.34-.248-2.34-.213-.072-2.172-1.127-3.901-2.06699-1.197 2.49999-4.3 2.95299-6.198 1.76499-1.392-.87-2.048-1.94199-2.252-3.08599-.639.363-1.321.833-2.03 1.4a41.2358 41.2358 0 0 1-3.654-5.434l-3.05899 1.019c-.24.08-.372.274-.275.558 0 0 .08.248.213.638C9.23201 8.44901 11.112 10.178 12.522 11.34a17.06856 17.06856 0 0 0-1.516 1.862 49.9899 49.9899 0 0 1-1.73799-.958c0 .754-.381 1.286-1.578 1.17-.852-.088-2.75-.283-3.05-.31a3.27298 3.27298 0 0 0-.78.018c2.163.975 4.3 1.693 5.896 2.137-.364.7-.692 1.445-.967 2.234-2.12-.133-5.231-.505-8.21-1.365A4.72995 4.72995 0 0 0 .4 17.946c.089 1.011.417 1.8.86 2.42 2.59.063 5.09-.176 6.863-.442a18.88679 18.88679 0 0 0-.248 1.649c.044-.027.088-.045.142-.071.85-.435 1.702-.798 2.14499-.763 1.064.107 1.002 1.915 1.002 1.915l.107 8.575c.062.478.443.425.443.425s8.424-.789 9.612-1.17c1.064-.328.877-1.117.78-1.454h.001Zm9.78-6.695 1.153.31-1.49.276-.674-1.233 1.01.647h.001Zm-5.4-8.929.816.78s-.967.4-1.383.134c-.417-.275-1.091-1.765-1.091-1.765l1.658.851Z" fill="#042B4C"/><path d="M16.3 7.94503c-.063-.612 0-1.233.141-1.853.195-.905.337-1.81.284-2.412-.124-1.17-1.694-.87-2.447-.656a42.88467 42.88467 0 0 0 2.021 4.92l.001.001Z" fill="#042B4C"/></svg>
